<?xml version="1.0"?>
<svg xmlns="http://www.w3.org/2000/svg" height="512px" viewBox="0 0 480 480" width="512px"><path d="m472 223.996094c0-2.121094-.84375-4.15625-2.34375-5.65625l-64-64c-3.125-3.121094-8.1875-3.121094-11.3125 0l-64 64c-1.5 1.5-2.34375 3.535156-2.34375 5.65625v240h-16v-176c0-2.121094-.84375-4.15625-2.34375-5.65625l-64-64c-3.125-3.121094-8.1875-3.121094-11.3125 0l-64 64c-1.5 1.5-2.34375 3.535156-2.34375 5.65625v176h-16v-112c0-2.121094-.84375-4.15625-2.34375-5.65625l-64-64c-3.125-3.121094-8.1875-3.121094-11.3125 0l-64 64c-1.5 1.5-2.34375 3.535156-2.34375 5.65625v112h-8v16h480v-16h-8zm-400 240v-24h16v24zm32 0v-32c0-4.417969-3.582031-8-8-8h-32c-4.417969 0-8 3.582031-8 8v32h-32v-108.6875l56-56 56 56v108.6875zm128 0v-24h16v24zm32 0v-32c0-4.417969-3.582031-8-8-8h-32c-4.417969 0-8 3.582031-8 8v32h-32v-172.6875l56-56 56 56v172.6875zm128 0v-24h16v24zm32 0v-32c0-4.417969-3.582031-8-8-8h-32c-4.417969 0-8 3.582031-8 8v32h-32v-236.6875l56-56 56 56v236.6875zm0 0" fill="#007828"/><path d="m272 359.996094h-64c-4.417969 0-8 3.582031-8 8v32c0 4.421875 3.582031 8 8 8h64c4.417969 0 8-3.578125 8-8v-32c0-4.417969-3.582031-8-8-8zm-56 16h16v16h-16zm48 16h-16v-16h16zm0 0" fill="#007828"/><path d="m432 359.996094h-64c-4.417969 0-8 3.582031-8 8v32c0 4.421875 3.582031 8 8 8h64c4.417969 0 8-3.578125 8-8v-32c0-4.417969-3.582031-8-8-8zm-56 16h16v16h-16zm48 16h-16v-16h16zm0 0" fill="#007828"/><path d="m112 359.996094h-64c-4.417969 0-8 3.582031-8 8v32c0 4.421875 3.582031 8 8 8h64c4.417969 0 8-3.578125 8-8v-32c0-4.417969-3.582031-8-8-8zm-56 16h16v16h-16zm48 16h-16v-16h16zm0 0" fill="#007828"/><path d="m432 295.996094h-64c-4.417969 0-8 3.582031-8 8v32c0 4.421875 3.582031 8 8 8h64c4.417969 0 8-3.578125 8-8v-32c0-4.417969-3.582031-8-8-8zm-56 16h16v16h-16zm48 16h-16v-16h16zm0 0" fill="#007828"/><path d="m432 231.996094h-64c-4.417969 0-8 3.582031-8 8v32c0 4.421875 3.582031 8 8 8h64c4.417969 0 8-3.578125 8-8v-32c0-4.417969-3.582031-8-8-8zm-56 16h16v16h-16zm48 16h-16v-16h16zm0 0" fill="#007828"/><path d="m272 295.996094h-64c-4.417969 0-8 3.582031-8 8v32c0 4.421875 3.582031 8 8 8h64c4.417969 0 8-3.578125 8-8v-32c0-4.417969-3.582031-8-8-8zm-56 16h16v16h-16zm48 16h-16v-16h16zm0 0" fill="#007828"/><path d="m470.0625.238281-64 16 3.875 15.519531 38.972656-9.734374c-111.0625 122.285156-260.0625 203.613281-422.988281 230.878906l-19.203125 3.199218 2.625 15.777344 19.199219-3.199218c168.128906-28.148438 321.6875-112.632813 435.457031-239.578126v42.894532h16v-64c0-2.460938-1.136719-4.785156-3.074219-6.300782-1.941406-1.515624-4.472656-2.054687-6.863281-1.457031zm0 0" fill="#007828"/></svg>
