<?xml version="1.0"?>
<svg xmlns="http://www.w3.org/2000/svg" height="512px" viewBox="-70 0 478 478.03898" width="512px"><path d="m308.726562 235.046875c48.511719-84.046875 35.152344-182.886719-29.785156-220.425781-31.832031-18.359375-70.921875-19.46875-110.082031-3.101563-40.554687 18.011719-74.148437 48.734375-95.703125 87.527344-40 69.335937-38.953125 149.464844 1.914062 196.992187l-13.410156 46.917969-59.519531 103.082031c-4.386719 7.65625-1.761719 17.421876 5.871094 21.847657l13.855469 8c2.433593 1.410156 5.191406 2.152343 8 2.152343 1.410156 0 2.808593-.1875 4.167968-.550781 4.105469-1.089843 7.605469-3.773437 9.722656-7.457031l59.480469-103.074219 33.949219-35.085937c7.199219 1.410156 14.515625 2.144531 21.847656 2.191406 55.664063 0 114.304688-37.792969 149.691406-99.015625zm-292.714843 218.984375 40-69.28125 13.855469 8-40 69.28125zm75.042969-97.488281c-.460938.484375-.859376 1.019531-1.1875 1.601562l-12 20.796875-13.855469-8 12-20.796875c.328125-.570312.585937-1.175781.761719-1.808593l11.199218-39.273438c.273438.234375.578125.433594.855469.65625 1.496094 1.222656 3.03125 2.398438 4.59375 3.503906.75.550782 1.480469 1.136719 2.246094 1.664063 2.351562 1.601562 4.800781 3.199219 7.25 4.609375 2.445312 1.40625 5.039062 2.75 7.621093 4 .851563.398437 1.714844.742187 2.570313 1.117187 1.757813.800781 3.527344 1.546875 5.328125 2.226563.335938.128906.65625.289062.984375.40625zm45.085937-41.054688c-17.8125-4.046875-33.984375-13.378906-46.398437-26.777343-38.539063-41.273438-39.6875-117.679688-2.753907-181.664063 19.792969-35.757813 50.679688-64.105469 88-80.761719 15.21875-6.578125 31.597657-10.070312 48.175781-10.269531 16.75-.148437 33.234376 4.152344 47.777344 12.464844 57.296875 33.085937 68 122.160156 23.917969 198.566406-36.949219 63.992187-103.695313 101.167969-158.71875 88.441406zm0 0" fill="#008000"/><path d="m266.941406 35.40625c-53.488281-30.871094-131.097656 3.058594-173 75.640625-41.90625 72.585937-32.480468 156.761719 21 187.632813 13.355469 7.621093 28.496094 11.5625 43.871094 11.414062 46.304688 0 97.738281-32.679688 129.128906-87.046875 41.894532-72.582031 32.488282-156.761719-21-187.640625zm-71.503906 235.847656 16-27.710937 27.199219 15.695312c-8.644531 7.921875-18.175781 14.816407-28.398438 20.550781zm-3.023438 16.730469c-2.703124.984375-5.402343 1.78125-8.105468 2.542969l3.128906-5.417969zm-108.746093-81.257813c-.148438-11.722656 1.058593-23.425781 3.59375-34.871093l27.199219 15.6875-16 27.710937zm6.777343 22.402344-3.121093 5.40625c-.695313-2.71875-1.351563-5.449218-1.847657-8.28125zm37.855469-33.601562 27.710938 16-16 27.710937-27.710938-16zm58.144531-132.6875-16 27.710937-27.199218-15.710937c8.65625-7.914063 18.195312-14.800782 28.429687-20.527344zm3.046876-16.722656c2.703124-.980469 5.410156-1.851563 8.113281-2.613282l-3.160157 5.453125zm10.808593 24.722656 27.710938 16-16 27.710937-27.710938-16zm97.914063 56.519531c.148437 11.722656-1.058594 23.425781-3.59375 34.871094l-27.199219-15.6875 16-27.710938zm-6.777344-22.402344 3.121094-5.398437c.695312 2.710937 1.351562 5.449218 1.847656 8.273437zm-37.855469 33.601563-27.714843-16 16-27.710938 27.714843 16zm-51.714843 25.601562 16-27.714844 27.707031 16-16 27.707032zm19.714843 29.855469-16 27.710937-27.714843-16 16-27.710937zm-17.601562-65.601563-16 27.714844-27.710938-16 16-27.714844zm-24 41.601563-16 27.710937-27.710938-16 16-27.710937zm-10.144531 49.597656 27.714843 16-16 27.714844-27.714843-16zm49.601562 10.144531 16-27.710937 34.398438 19.855469c-5.730469 9.121094-12.234376 17.730468-19.4375 25.738281zm24-41.597656 16-27.707031 30.960938 17.882813c-3.328126 10.238281-7.53125 20.167968-12.5625 29.6875zm43.878906-108-9.734375 16.796875-27.714843-16 15.714843-27.199219c9.195313 6.976563 16.636719 15.996094 21.734375 26.351563zm-35.574218-34.402344-15.730469 27.199219-27.710938-16 9.769531-16.910156c1.535157-.089844 3.078126-.207031 4.597657-.207031 9.996093-.035156 19.886719 1.980468 29.074219 5.917968zm-120.242188 40.800782 30.953125 17.871094-16 27.714843-34.457031-19.898437c5.746094-9.109375 12.269531-17.703125 19.496094-25.6875zm-27.445312 39.585937 34.398437 19.855469-16 27.710938-30.960937-17.878907c3.324218-10.246093 7.523437-20.1875 12.554687-29.714843zm-9.488282 127.839844 9.734375-16.875 27.710938 16-15.710938 27.203125c-9.191406-6.96875-16.632812-15.984375-21.734375-26.328125zm35.574219 34.34375 15.710937-27.199219 27.714844 16-9.746094 16.871094c-11.515624.753906-23.046874-1.1875-33.679687-5.671875zm0 0" fill="#008000"/><path d="m302.941406 326.894531c-6.988281-3.953125-14.746094-6.359375-22.746094-7.054687-1.476562-.136719-2.933593-.417969-4.421874-.441406-.457032 0-.90625.089843-1.351563.089843-2.726563-.011719-5.453125.175781-8.152344.558594-30.5625 4.792969-51.453125 33.457031-46.660156 64.019531s33.457031 51.453125 64.019531 46.660156c23.457032-3.675781 42.042969-21.742187 46.386719-45.085937 4.339844-23.339844-6.507813-46.882813-27.074219-58.746094zm-27.921875 8.464844c9.117188-.007813 17.957031 3.144531 25.007813 8.917969.488281.386718.9375.800781 1.410156 1.226562 1.085938.960938 2.125 1.984375 3.101562 3.054688.449219.496094.90625.992187 1.328126 1.503906 1.019531 1.253906 1.957031 2.5625 2.816406 3.929688.226562.367187.496094.703124.714844 1.070312.046874.089844.078124.183594.125.265625-7.1875 3.554687-15.679688 3.273437-22.617188-.746094-6.9375-4.023437-11.402344-11.25-11.894531-19.253906zm-.46875 80c-.386719 0-.800781-.0625-1.152343-.074219-1.660157-.058594-3.316407-.222656-4.953126-.496094-.640624-.101562-1.273437-.238281-1.90625-.375-1.4375-.316406-2.859374-.710937-4.253906-1.183593-.574218-.191407-1.160156-.367188-1.734375-.589844-1.933593-.738281-3.804687-1.621094-5.601562-2.640625-1.789063-1.050781-3.492188-2.234375-5.097657-3.546875-.480468-.375-.917968-.796875-1.375-1.191406-1.105468-.972657-2.160156-2.011719-3.152343-3.101563-.429688-.480468-.871094-.960937-1.277344-1.457031-1.046875-1.273437-2.011719-2.609375-2.890625-4-.207031-.335937-.457031-.640625-.65625-.984375-.046875-.085938-.078125-.191406-.136719-.28125 7.175781-3.542969 15.648438-3.265625 22.578125.734375 6.929688 4.003906 11.402344 11.203125 11.917969 19.1875zm35.03125-20c-4.328125 7.511719-10.988281 13.410156-18.96875 16.800781-1.484375-12.496094-8.777343-23.558594-19.675781-29.847656-10.894531-6.289062-24.121094-7.070312-35.683594-2.105469-2.179687-17.667969 7.613282-34.640625 24-41.601562 1.417969 12.519531 8.707032 23.621093 19.625 29.902343 10.921875 6.285157 24.179688 7.003907 35.71875 1.9375 1.089844 8.628907-.671875 17.378907-5.015625 24.914063zm0 0" fill="#008000"/></svg>
